<svg xmlns="http://www.w3.org/2000/svg" width="500" height="500" viewBox="0 0 500 500"><path fill="#FFF" d="M112.688 500H9.514V166.016h103.149V500h.025zM61.149 120.402c-33.098 0-59.814-26.953-59.814-60.205C1.335 26.969 28.052 0 61.149 0c32.951 0 59.717 26.969 59.717 60.181.017 33.252-26.765 60.221-59.717 60.221M498.665 500h-103.06V337.598c0-38.737-.635-88.582-53.516-88.582-53.646 0-61.816 42.228-61.816 85.782V500H177.336V166.016h98.804v45.654h1.399c13.704-26.285 47.363-53.971 97.493-53.971 104.362 0 123.633 69.181 123.633 159.098V500z"/></svg>