<svg xmlns="http://www.w3.org/2000/svg" viewBox="0 0 20 22"><g fill="#0b44f7"><path d="M3.779 9.824H0V6.037h7.515v10.871H3.779V9.824zM9.258 11.47c0-3.566 2.259-5.697 4.546-5.697 1.15 0 1.891.392 2.544 1.086h.086l-.173-1.561v-3.53H20v15.138h-3.044l-.262-1h-.087c-.761.738-1.827 1.26-2.806 1.26-2.764.002-4.543-2.176-4.543-5.696zm7.003 1.874V9.338a2.038 2.038 0 00-1.436-.521c-.914 0-1.741.696-1.741 2.608 0 1.958.631 2.699 1.696 2.699.609-.002 1.066-.176 1.48-.785v.005z"/><circle cx="5.57" cy="2.181" r="2.181"/><path d="M3.754 20.232h.686v1.653h.695v-2.342H3.754zM6.99 19.375l.033.363h-.017a.766.766 0 00-.59-.252c-.51 0-1.001.461-1.001 1.229s.39 1.227.988 1.227a.973.973 0 00.647-.297h.019l.051.24h.566v-3.309H6.99v.799zm0 1.781a.486.486 0 01-.416.217c-.283 0-.453-.207-.453-.666 0-.457.22-.652.472-.652a.558.558 0 01.393.156l.004.945zM9.131 19.486a1.193 1.193 0 00-1.218 1.172v.059c0 .777.568 1.229 1.299 1.229.328-.004.65-.1.929-.273l-.229-.416a1.285 1.285 0 01-.605.162c-.383 0-.624-.152-.697-.49h1.595c.019-.104.027-.207.028-.313 0-.643-.379-1.13-1.102-1.13zm.022.528c.27 0 .429.15.464.441H8.615a.518.518 0 01.538-.441zM11.577 19.486a2.204 2.204 0 00-1.096.311l.248.457c.265-.133.49-.221.717-.221.311 0 .471.129.495.338-1.106.068-1.541.334-1.541.859 0 .395.296.707.771.707.304-.016.596-.127.832-.32h.02l.05.264h.567v-1.334c-.003-.719-.404-1.061-1.063-1.061zm.363 1.694a.9.9 0 01-.552.225c-.196 0-.323-.072-.323-.225 0-.199.186-.348.875-.385v.385zM14.356 19.486a1.15 1.15 0 00-.812.367h-.019l-.05-.311h-.565v2.342h.693v-1.561c.163-.16.29-.244.475-.244.254 0 .344.139.344.449v1.354h.696v-1.447c0-.585-.23-.949-.762-.949zM16.716 21.381a.621.621 0 01-.658-.666c0-.406.277-.668.681-.668a.864.864 0 01.52.186l.319-.43a1.259 1.259 0 00-.876-.313c-.723 0-1.354.449-1.354 1.229 0 .781.566 1.227 1.305 1.227.352 0 .691-.123.962-.346l-.28-.438a1.1 1.1 0 01-.619.219zM19.972 20.613c0-.637-.381-1.125-1.103-1.125a1.195 1.195 0 00-1.219 1.229c0 .777.567 1.229 1.298 1.229.328-.004.65-.1.929-.273l-.229-.416a1.284 1.284 0 01-.604.162c-.383 0-.625-.152-.698-.49h1.598c.016-.105.026-.21.028-.316zm-1.078-.597c.268 0 .428.15.463.441h-1.001a.516.516 0 01.538-.443v.002z"/><circle cx="4.755" cy="18.752" r=".391"/></g></svg>