<?xml version="1.0" encoding="UTF-8" standalone="no"?>
<svg
   width="800"
   height="800"
   viewBox="0 0 24 24"
   fill="none"
   version="1.1"
   id="svg8"
   sodipodi:docname="question_rotate.svg"
   inkscape:version="1.1.2 (b8e25be833, 2022-02-05)"
   xmlns:inkscape="http://www.inkscape.org/namespaces/inkscape"
   xmlns:sodipodi="http://sodipodi.sourceforge.net/DTD/sodipodi-0.dtd"
   xmlns="http://www.w3.org/2000/svg"
   xmlns:svg="http://www.w3.org/2000/svg">
  <defs
     id="defs12" />
  <sodipodi:namedview
     id="namedview10"
     pagecolor="#ffffff"
     bordercolor="#666666"
     borderopacity="1.0"
     inkscape:pageshadow="2"
     inkscape:pageopacity="0.0"
     inkscape:pagecheckerboard="0"
     showgrid="false"
     inkscape:zoom="0.9975"
     inkscape:cx="400"
     inkscape:cy="400.50125"
     inkscape:window-width="1920"
     inkscape:window-height="991"
     inkscape:window-x="-9"
     inkscape:window-y="-9"
     inkscape:window-maximized="1"
     inkscape:current-layer="svg8" />
  <path
     d="M10.125 8.875C10.125 7.83947 10.9645 7 12 7C13.0355 7 13.875 7.83947 13.875 8.875C13.875 9.56245 13.505 10.1635 12.9534 10.4899C12.478 10.7711 12 11.1977 12 11.75V13"
     stroke="#1C274C"
     stroke-width="1.5"
     stroke-linecap="round"
     id="path2" />
  <circle
     cx="12"
     cy="16"
     r="1"
     fill="#1C274C"
     id="circle4" />
  <path
     d="m 21.877456,13.560726 c -0.735726,4.656233 -1.103605,6.984448 -2.778711,8.202334 -1.675023,1.218001 -4.003238,0.850122 -8.659471,0.114396 C 5.7829918,21.141722 3.4548557,20.773856 2.2369102,19.09874 1.0189391,17.423722 1.3868179,15.095507 2.1225442,10.439274 2.8582782,5.7829918 3.2261445,3.4548557 4.9012304,2.2369055 6.5763079,1.0189438 8.904444,1.3868101 13.560726,2.1225442 c 4.656233,0.7357262 6.984448,1.103605 8.202339,2.7786815 0.809892,1.1137909 0.918633,2.5162892 0.684257,4.6999185"
     stroke="#1c274c"
     stroke-width="1.5"
     stroke-linecap="round"
     id="path6" />
</svg>
